<svg xmlns="http://www.w3.org/2000/svg" width="799.644" height="567.358" viewBox="0 0 799.644 567.358" xmlns:xlink="http://www.w3.org/1999/xlink" role="img" artist="Katerina Limpitsouni" source="https://undraw.co/"><g transform="translate(-654 -263.001)"><path d="M1308.321,232.384H579.3a12.978,12.978,0,0,0-12.851,13.072v495.3A12.971,12.971,0,0,0,579.3,753.8h729.024a12.972,12.972,0,0,0,12.851-13.04v-495.3a12.978,12.978,0,0,0-12.85-13.072Z" transform="translate(87.555 30.617)" fill="#090814"/><path d="M1285.614,232.384H578.9a12.485,12.485,0,0,0-12.463,12.484v472.97A12.479,12.479,0,0,0,578.9,730.3h706.709a12.479,12.479,0,0,0,12.463-12.463V244.866a12.484,12.484,0,0,0-12.456-12.484Z" transform="translate(88.717 33.207)" fill="#fff"/><g transform="translate(717.469 409.455)"><path d="M277.645,256.41V59.505l-17.82-3.972v218.7l134.458-1.375-.454-17.632Z" transform="translate(-248.487 -29.86)" fill="#f2f2f2"/><path d="M527.365,444.553h-162V183.737h162Zm-158.758-3.24H524.125V186.977H368.607Z" transform="translate(-365.367 -183.737)" fill="#3f3d56"/><rect width="26.239" height="3.24" transform="translate(14.58 16.198)" fill="#3f3d56"/><rect width="26.239" height="3.24" transform="translate(14.58 24.297)" fill="#3f3d56"/><rect width="26.239" height="3.24" transform="translate(14.58 32.399)" fill="#3f3d56"/><rect width="112.097" height="3.24" transform="translate(27.54 171.714)" fill="#3f3d56"/><rect width="112.097" height="3.24" transform="translate(27.54 189.535)" fill="#3f3d56"/><rect width="112.097" height="3.24" transform="translate(27.54 207.355)" fill="#3f3d56"/><path d="M454.707,215.416a11.34,11.34,0,1,1,11.34-11.34,11.34,11.34,0,0,1-11.34,11.34Zm0-19.44a8.1,8.1,0,1,0,8.1,8.1A8.1,8.1,0,0,0,454.707,195.976Z" transform="translate(-317.01 -178.158)" fill="#3f3d56"/><path d="M496.385,295.255H381.367V220.737H496.385Zm-111.778-3.24H493.145V223.977H384.607Z" transform="translate(-355.447 -160.799)" fill="#3f3d56"/><rect width="3.24" height="132.571" transform="translate(26.67 62.924) rotate(-57.475)" fill="#3f3d56"/><rect width="132.571" height="3.24" transform="translate(26.666 131.466) rotate(-32.525)" fill="#3f3d56"/></g><g transform="translate(1149.06 409.455)"><path d="M277.645,256.41V59.505l-17.82-3.972v218.7l134.458-1.375-.454-17.632Z" transform="translate(-248.487 -29.86)" fill="#f2f2f2"/><path d="M527.365,444.553h-162V183.737h162Zm-158.758-3.24H524.125V186.977H368.607Z" transform="translate(-365.367 -183.737)" fill="#3f3d56"/><rect width="26.239" height="3.24" transform="translate(14.58 16.198)" fill="#3f3d56"/><rect width="26.239" height="3.24" transform="translate(14.58 24.297)" fill="#3f3d56"/><rect width="26.239" height="3.24" transform="translate(14.58 32.399)" fill="#3f3d56"/><rect width="112.097" height="3.24" transform="translate(27.54 171.714)" fill="#3f3d56"/><rect width="112.097" height="3.24" transform="translate(27.54 189.535)" fill="#3f3d56"/><rect width="112.097" height="3.24" transform="translate(27.54 207.355)" fill="#3f3d56"/><path d="M454.707,215.416a11.34,11.34,0,1,1,11.34-11.34,11.34,11.34,0,0,1-11.34,11.34Zm0-19.44a8.1,8.1,0,1,0,8.1,8.1A8.1,8.1,0,0,0,454.707,195.976Z" transform="translate(-317.01 -178.158)" fill="#3f3d56"/><path d="M496.385,295.255H381.367V220.737H496.385Zm-111.778-3.24H493.145V223.977H384.607Z" transform="translate(-355.447 -160.799)" fill="#3f3d56"/><rect width="3.24" height="132.571" transform="translate(26.67 62.924) rotate(-57.475)" fill="#3f3d56"/><rect width="132.571" height="3.24" transform="translate(26.666 131.466) rotate(-32.525)" fill="#3f3d56"/></g><g transform="translate(933.265 409.455)"><path d="M277.645,256.41V59.505l-17.82-3.972v218.7l134.458-1.375-.454-17.632Z" transform="translate(-248.487 -29.86)" fill="#f2f2f2"/><path d="M527.365,444.553h-162V183.737h162Zm-158.758-3.24H524.125V186.977H368.607Z" transform="translate(-365.367 -183.737)" fill="#3f3d56"/><rect width="26.239" height="3.24" transform="translate(14.58 16.198)" fill="#3f3d56"/><rect width="26.239" height="3.24" transform="translate(14.58 24.297)" fill="#3f3d56"/><rect width="26.239" height="3.24" transform="translate(14.58 32.399)" fill="#3f3d56"/><rect width="112.097" height="3.24" transform="translate(27.54 171.714)" fill="#3f3d56"/><rect width="112.097" height="3.24" transform="translate(27.54 189.535)" fill="#3f3d56"/><rect width="112.097" height="3.24" transform="translate(27.54 207.355)" fill="#3f3d56"/><path d="M454.707,215.416a11.34,11.34,0,1,1,11.34-11.34,11.34,11.34,0,0,1-11.34,11.34Zm0-19.44a8.1,8.1,0,1,0,8.1,8.1A8.1,8.1,0,0,0,454.707,195.976Z" transform="translate(-317.01 -178.158)" fill="#3f3d56"/><path d="M496.385,295.255H381.367V220.737H496.385Zm-111.778-3.24H493.145V223.977H384.607Z" transform="translate(-355.447 -160.799)" fill="#3f3d56"/><rect width="3.24" height="132.571" transform="translate(26.67 62.924) rotate(-57.475)" fill="#3f3d56"/><rect width="132.571" height="3.24" transform="translate(26.666 131.466) rotate(-32.525)" fill="#3f3d56"/></g><g transform="translate(1319.94 696.655)"><circle cx="66.852" cy="66.852" r="66.852" transform="translate(0 0)" fill="#0F1D3F"/><path d="M27.379,56.22a6.166,6.166,0,0,1-4.374-1.812L1.812,32.061a6.186,6.186,0,0,1,8.748-8.748L27.379,41.286,58.468-.188A6.186,6.186,0,1,1,67.216,8.56L31.753,54.408A6.166,6.166,0,0,1,27.379,56.22Z" transform="translate(32.312 38.928)" fill="#f2f2f2"/></g><path d="M1165.392,260.774H576.384a2.655,2.655,0,0,1,0-5.259h589.008a2.655,2.655,0,0,1,0,5.259Z" transform="translate(143.375 85.13)" fill="#cacaca"/><ellipse cx="15.411" cy="15.755" rx="15.411" ry="15.755" transform="translate(717.469 295.708)" fill="#0F1D3F"/><ellipse cx="15.411" cy="15.755" rx="15.411" ry="15.755" transform="translate(770.708 295.708)" fill="#0F1D3F"/><ellipse cx="15.411" cy="15.755" rx="15.411" ry="15.755" transform="translate(823.945 295.708)" fill="#0F1D3F"/><ellipse cx="15.411" cy="15.755" rx="15.411" ry="15.755" transform="translate(1280.236 295.708)" fill="#e6e6e6"/></g></svg>