<?xml version="1.0" encoding="UTF-8"?>
<svg version="1.1" xmlns="http://www.w3.org/2000/svg" width="500" height="500">
<path d="M0 0 C0 8.91 0 17.82 0 27 C-2.64 27.99 -5.28 28.98 -8 30 C-10.15358986 32.1602485 -10.15358986 32.1602485 -11.5 34.6875 C-11.9846875 35.49574219 -12.469375 36.30398437 -12.96875 37.13671875 C-13.3090625 37.75160156 -13.649375 38.36648437 -14 39 C-17 37 -17 37 -17.43237305 34.84521484 C-17.45855713 33.97590332 -17.48474121 33.1065918 -17.51171875 32.2109375 C-17.54716797 31.26992187 -17.58261719 30.32890625 -17.61914062 29.359375 C-17.64169922 28.37453125 -17.66425781 27.3896875 -17.6875 26.375 C-17.72166016 25.38242188 -17.75582031 24.38984375 -17.79101562 23.3671875 C-17.87365657 20.91157094 -17.94275127 18.45631859 -18 16 C-21.93724069 15.88213212 -25.87401761 15.81219826 -29.8125 15.75 C-30.91271484 15.71648437 -32.01292969 15.68296875 -33.14648438 15.6484375 C-43.2378261 15.52936562 -52.24776791 17.70596679 -60.21484375 24.16796875 C-68.05460418 32.21358722 -70.4626372 41.74064593 -70.3359375 52.6875 C-69.84111177 57.56671184 -68.19903395 61.65101767 -66 66 C-65.90912109 64.93458984 -65.90912109 64.93458984 -65.81640625 63.84765625 C-65.73261719 62.92855469 -65.64882812 62.00945312 -65.5625 61.0625 C-65.44068359 59.68771484 -65.44068359 59.68771484 -65.31640625 58.28515625 C-65 56 -65 56 -64 55 C-60.7 55 -57.4 55 -54 55 C-53.67 62.26 -53.34 69.52 -53 77 C-47.39849253 79.80075373 -37.88537584 78.79468524 -31.96484375 77.1640625 C-25.05088603 73.9795812 -20.37834458 68.96390764 -16.5 62.5 C-15.76811629 58.84058146 -16.44740652 55.68395653 -17 52 C-15.24440058 50.24440058 -12.96417558 50.86778081 -10.62890625 50.86328125 C-9.92636719 50.86714844 -9.22382813 50.87101562 -8.5 50.875 C-7.79746094 50.87113281 -7.09492188 50.86726563 -6.37109375 50.86328125 C-1.12661378 50.87338622 -1.12661378 50.87338622 0 52 C0.12147024 65.1673744 -4.63884713 75.37842899 -13.65625 84.71484375 C-23.31407952 93.66655838 -33.74679125 95.48357254 -46.4375 95.27734375 C-57.8764272 94.80541757 -67.52602337 88.93597149 -75.25 80.75 C-83.86544416 70.55562982 -87.67082237 58.09960346 -86.7890625 44.82421875 C-84.91367299 30.05110327 -78.8043278 18.56119558 -67.57421875 8.89453125 C-59.35419915 2.84489618 -51.4504556 -0.07833502 -41.375 -0.31640625 C-40.6322583 -0.33718735 -39.8895166 -0.35796844 -39.12426758 -0.37937927 C-37.55083693 -0.42256046 -35.97734661 -0.46361241 -34.40380859 -0.50268555 C-32.03598363 -0.56160461 -29.66840429 -0.62686422 -27.30078125 -0.69335938 C-2.72822711 -1.36411356 -2.72822711 -1.36411356 0 0 Z " fill="#4B8DCF" transform="translate(158,187)"/>
<path d="M0 0 C2.59579737 2.52369189 4.44756828 5.04993367 6.25 8.1875 C6.25 9.1775 6.25 10.1675 6.25 11.1875 C-1.58125898 11.8145581 -4.67262025 11.35973808 -10.75 6.1875 C-15.61473043 5.23192795 -19.45177501 5.43020209 -23.75 7.9375 C-27.67049098 12.34805235 -28.19429597 15.93032228 -28.06640625 21.7109375 C-27.5948365 25.40198958 -26.25237499 27.48222974 -23.75 30.1875 C-19.84397224 32.51000299 -16.22715964 32.5872464 -11.75 32.1875 C-8.2113006 30.53610695 -6.93929847 29.47144771 -4.75 26.1875 C-1.9296875 25.89453125 -1.9296875 25.89453125 1.375 26 C2.47070312 26.02707031 3.56640625 26.05414063 4.6953125 26.08203125 C5.95988281 26.13423828 5.95988281 26.13423828 7.25 26.1875 C3.96364349 33.81184709 0.06037395 38.80817752 -7.75 42.0625 C-14.69312248 44.27951999 -20.41926241 43.18190862 -27.09375 40.578125 C-32.68170919 37.65266401 -36.2067155 32.9775255 -38.6875 27.25 C-40.89797063 20.17649398 -40.37528423 13.95342134 -37.07421875 7.328125 C-33.61539664 1.73687274 -29.26209066 -2.40327061 -22.91796875 -4.37890625 C-14.42011384 -6.07847723 -7.19840955 -4.74440629 0 0 Z " fill="#0A0A0A" transform="translate(215.75,225.8125)"/>
<path d="M0 0 C14.75768389 0.00768389 14.75768389 0.00768389 20.5 5.75 C23.49106406 10.73510677 23.63625279 15.57674598 23 21.25 C20.8065619 25.71811466 18.51294863 28.15863356 14 30.25 C9.78642747 31.46971836 6.60919975 31.25 2 31.25 C2 36.53 2 41.81 2 47.25 C-1.63 47.25 -5.26 47.25 -9 47.25 C-9.02464347 40.71720661 -9.04283291 34.18444002 -9.05493164 27.65161133 C-9.05997317 25.42732268 -9.06680623 23.20303737 -9.07543945 20.97875977 C-9.08751298 17.78921691 -9.09322996 14.59971771 -9.09765625 11.41015625 C-9.10281754 10.40912369 -9.10797882 9.40809113 -9.11329651 8.37672424 C-9.11337204 7.45584518 -9.11344757 6.53496613 -9.11352539 5.58618164 C-9.115746 4.77121719 -9.11796661 3.95625275 -9.12025452 3.11659241 C-8.82279418 -1.50059136 -3.54657105 0.01304572 0 0 Z M2 9.25 C2 13.54 2 17.83 2 22.25 C7.19503151 22.67630704 7.19503151 22.67630704 12 21.1875 C13.58433618 18.11784865 13.36248449 15.63318857 13 12.25 C12.14780077 10.14757556 12.14780077 10.14757556 10 9.25 C7.28117977 9.01404716 4.74042978 9.11522477 2 9.25 Z " fill="#111111" transform="translate(314,220.75)"/>
<path d="M0 0 C3.3 0 6.6 0 10 0 C10.33 7.59 10.66 15.18 11 23 C12.98 22.01 14.96 21.02 17 20 C20.97151103 19.42082131 22.66116292 19.82406536 26.25 21.6875 C29.74442297 24.62599204 30.82876675 27.04886157 31.22705078 31.5871582 C31.21657715 32.48265381 31.20610352 33.37814941 31.1953125 34.30078125 C31.18886719 35.27724609 31.18242187 36.25371094 31.17578125 37.25976562 C31.15902344 38.26716797 31.14226562 39.27457031 31.125 40.3125 C31.11597656 41.33923828 31.10695313 42.36597656 31.09765625 43.42382812 C31.07416331 45.94931927 31.03829451 48.47468992 31 51 C27.7 51 24.4 51 21 51 C20.90912109 49.22882813 20.90912109 49.22882813 20.81640625 47.421875 C20.73197418 45.8645723 20.64732751 44.30728121 20.5625 42.75 C20.52318359 41.97269531 20.48386719 41.19539063 20.44335938 40.39453125 C20.40146484 39.64042969 20.35957031 38.88632813 20.31640625 38.109375 C20.27974854 37.41811523 20.24309082 36.72685547 20.20532227 36.01464844 C19.99324476 33.93371671 19.55491323 32.01427578 19 30 C17.02 30 15.04 30 13 30 C10.8456962 34.4399676 10.58254154 38.47418774 10.375 43.3125 C10.33632813 44.05306641 10.29765625 44.79363281 10.2578125 45.55664062 C10.16418295 47.37071309 10.08103149 49.18532116 10 51 C6.7 51 3.4 51 0 51 C0 34.17 0 17.34 0 0 Z " fill="#050505" transform="translate(408,217)"/>
<path d="M0 0 C0.845625 0.495 1.69125 0.99 2.5625 1.5 C2.8925 0.84 3.2225 0.18 3.5625 -0.5 C6.8625 -0.5 10.1625 -0.5 13.5625 -0.5 C13.5625 9.4 13.5625 19.3 13.5625 29.5 C10.2625 29.5 6.9625 29.5 3.5625 29.5 C3.2325 28.84 2.9025 28.18 2.5625 27.5 C1.3559375 28.2734375 1.3559375 28.2734375 0.125 29.0625 C-4.457403 30.91153981 -7.70368893 30.73859573 -12.4375 29.5 C-17.3295654 27.0539673 -19.70265642 24.70453074 -21.4375 19.5 C-22.09196499 14.61171211 -22.11055552 10.10574705 -19.875 5.625 C-14.58458717 -1.15758055 -8.26703691 -3.60743429 0 0 Z M-9.375 9.125 C-10.75315201 12.20557508 -10.92496608 14.15737548 -10.4375 17.5 C-8.9375 20 -8.9375 20 -6.4375 21.5 C-3.4375 22.25 -3.4375 22.25 -0.4375 21.5 C2.15371904 19.4901643 2.15371904 19.4901643 3.5625 16.5 C3.498818 13.31590023 3.07290601 11.35067668 1.4375 8.625 C-2.18666572 6.45050057 -6.11527912 6.39104056 -9.375 9.125 Z " fill="#070707" transform="translate(362.4375,238.5)"/>
<path d="M0 0 C3.59603187 1.43471819 5.66077074 3.46876364 7.28125 6.91015625 C7.87871239 11.05583622 7.75365684 15.10789768 7.59375 19.28515625 C7.57119141 20.40277344 7.54863281 21.52039063 7.52539062 22.671875 C7.46668378 25.41935515 7.38461846 28.16405386 7.28125 30.91015625 C3.98125 30.91015625 0.68125 30.91015625 -2.71875 30.91015625 C-2.77933594 29.47800781 -2.83992188 28.04585938 -2.90234375 26.5703125 C-2.98673104 24.70441584 -3.07137993 22.83853101 -3.15625 20.97265625 C-3.19556641 20.02712891 -3.23488281 19.08160156 -3.27539062 18.10742188 C-3.31728516 17.20830078 -3.35917969 16.30917969 -3.40234375 15.3828125 C-3.43900146 14.55015869 -3.47565918 13.71750488 -3.51342773 12.85961914 C-3.51242103 10.90676767 -3.51242103 10.90676767 -4.71875 9.91015625 C-7.17667029 9.57672074 -7.17667029 9.57672074 -9.71875 9.91015625 C-11.7328456 12.93129965 -11.98711596 13.71675642 -12.1328125 17.140625 C-12.19082031 18.34428711 -12.19082031 18.34428711 -12.25 19.57226562 C-12.29640625 20.82233398 -12.29640625 20.82233398 -12.34375 22.09765625 C-12.40175781 23.36512695 -12.40175781 23.36512695 -12.4609375 24.65820312 C-12.55511279 26.74183149 -12.63801675 28.82596378 -12.71875 30.91015625 C-16.34875 30.91015625 -19.97875 30.91015625 -23.71875 30.91015625 C-23.71875 21.01015625 -23.71875 11.11015625 -23.71875 0.91015625 C-20.08875 0.91015625 -16.45875 0.91015625 -12.71875 0.91015625 C-12.38875 1.57015625 -12.05875 2.23015625 -11.71875 2.91015625 C-11.079375 2.39453125 -10.44 1.87890625 -9.78125 1.34765625 C-6.15058434 -0.35653376 -3.91336141 -0.26869911 0 0 Z " fill="#0C0C0C" transform="translate(290.71875,237.08984375)"/>
<path d="M0 0 C3.16756589 2.14154998 5.10760454 4.83630283 6.796875 8.21484375 C7.33723094 13.14005525 7.34122969 17.08426093 5.171875 21.58984375 C0.427591 26.83352607 -3.689155 28.88834555 -10.67578125 29.30859375 C-15.38868858 29.13377184 -19.28563393 28.00831798 -22.7734375 24.74609375 C-26.67418434 20.19893743 -27.50183357 17.33655928 -27.41796875 11.53125 C-26.99167851 6.93506612 -25.137121 4.12359662 -21.890625 0.96484375 C-14.5954422 -3.78550784 -7.58328145 -4.12965521 0 0 Z M-16.203125 8.21484375 C-17.64743355 11.10346084 -17.58001006 13.01132076 -17.203125 16.21484375 C-15.22346237 19.27792006 -15.22346237 19.27792006 -12.203125 21.21484375 C-8.64359351 21.28603438 -6.98193045 20.91576865 -4.328125 18.52734375 C-2.85892014 15.50731154 -2.78766457 13.53852718 -3.203125 10.21484375 C-4.66375389 7.37046117 -5.60162968 6.45227611 -8.578125 5.27734375 C-11.97097509 5.1965616 -13.52012546 6.2025941 -16.203125 8.21484375 Z " fill="#0A0A0A" transform="translate(254.203125,239.78515625)"/>
<path d="M0 0 C3.3 0 6.6 0 10 0 C10 3.96 10 7.92 10 12 C11.98 12 13.96 12 16 12 C16.04241723 14.33294775 16.04092937 16.66702567 16 19 C15.67 19.33 15.34 19.66 15 20 C13.35 20 11.7 20 10 20 C10 27.26 10 34.52 10 42 C6.7 42 3.4 42 0 42 C0 34.74 0 27.48 0 20 C-1.98 20 -3.96 20 -6 20 C-6 17.36 -6 14.72 -6 12 C-4.02 12 -2.04 12 0 12 C0 8.04 0 4.08 0 0 Z " fill="#060606" transform="translate(387,226)"/>
<path d="M0 0 C3.63 0 7.26 0 11 0 C11.09913574 4.75050819 11.17159264 9.50040976 11.21972656 14.25170898 C11.23979892 15.86672458 11.2670633 17.48166789 11.30175781 19.09643555 C11.35047215 21.42254501 11.37301154 23.74769093 11.390625 26.07421875 C11.41127014 26.79212082 11.43191528 27.51002289 11.45318604 28.24967957 C11.4546897 31.63565562 11.11729443 33.79708064 9.41308594 36.74536133 C7 39 7 39 0 43 C0 28.81 0 14.62 0 0 Z " fill="#488ACD" transform="translate(125,217)"/>
<path d="M0 0 C3.63 0 7.26 0 11 0 C11 10.56 11 21.12 11 32 C7.7 32 4.4 32 1 32 C0 31 0 31 -0.11352539 28.04077148 C-0.10828857 26.74727783 -0.10305176 25.45378418 -0.09765625 24.12109375 C-0.0962413 23.4344313 -0.09482635 22.74776886 -0.09336853 22.04029846 C-0.08775479 19.83932199 -0.07520007 17.63844591 -0.0625 15.4375 C-0.05748676 13.94856917 -0.05292355 12.45963676 -0.04882812 10.97070312 C-0.03778093 7.31376925 -0.02050713 3.65689442 0 0 Z " fill="#4C8CCD" transform="translate(109,230)"/>
</svg>
