<?xml version="1.0" encoding="UTF-8"?>
<svg version="1.1" xmlns="http://www.w3.org/2000/svg" width="500" height="500">
<path d="M0 0 C5.81243696 -0.06391791 11.62473806 -0.11155397 17.43743896 -0.14324951 C19.54835462 -0.15643031 21.65924624 -0.17434323 23.77008057 -0.19708252 C26.66620847 -0.2264123 29.56175008 -0.23665092 32.45800781 -0.24121094 C33.30164886 -0.25350739 34.14528992 -0.26580383 35.01449585 -0.2784729 C40.57934755 -0.25706541 40.57934755 -0.25706541 42.82695007 1.1882782 C44.76231515 4.04272662 44.48832286 6.39822437 44.48657227 9.8215332 C44.49022293 10.50150864 44.4938736 11.18148407 44.49763489 11.88206482 C44.50573909 14.12898759 44.49213356 16.37518896 44.47753906 18.62207031 C44.4770205 20.18240865 44.47753806 21.74274764 44.47904968 23.30308533 C44.47895997 26.57235472 44.46853148 29.84137747 44.45043945 33.1105957 C44.42773338 37.30633152 44.4272116 41.50170747 44.4339571 45.69748783 C44.43729414 48.91876946 44.43067235 52.13996866 44.42082787 55.36123466 C44.41697239 56.90863044 44.41582909 58.45603537 44.41741371 60.00343513 C44.4177835 62.16303193 44.40518971 64.32216252 44.38891602 66.48168945 C44.38430862 67.7117421 44.37970123 68.94179474 44.37495422 70.2091217 C44.11425781 73.08691406 44.11425781 73.08691406 42.11425781 75.08691406 C39.36940189 75.23199101 36.72945238 75.27343829 33.98925781 75.21191406 C33.23515625 75.20289063 32.48105469 75.19386719 31.70410156 75.18457031 C29.84068527 75.16098276 27.97743189 75.12511125 26.11425781 75.08691406 C25.90285156 75.74046875 25.69144531 76.39402344 25.47363281 77.06738281 C23.60312085 81.22228439 21.02270964 84.71324366 18.36425781 88.39941406 C17.85121094 89.12064453 17.33816406 89.841875 16.80957031 90.58496094 C13.31852058 95.47506201 9.73897607 100.29525679 6.11425781 105.08691406 C1.30327951 101.86902614 1.30327951 101.86902614 0.47502136 98.44195557 C0.46502861 96.93638092 0.46502861 96.93638092 0.45483398 95.40039062 C0.43519089 94.25950989 0.41554779 93.11862915 0.39530945 91.94317627 C0.40120842 90.10393585 0.40120842 90.10393585 0.40722656 88.22753906 C0.39210526 86.96802429 0.37698395 85.70850952 0.36140442 84.41082764 C0.32570689 81.06989092 0.31136579 77.73024982 0.30737305 74.38922119 C0.29803724 70.97708624 0.26062118 67.56527104 0.22558594 64.15332031 C0.16260686 57.46451124 0.12777429 50.77599604 0.11425781 44.08691406 C-8.86659067 43.99350036 -17.84726738 43.92279229 -26.82849884 43.87966537 C-31.00058877 43.858948 -35.17234203 43.83092763 -39.34423828 43.78515625 C-43.38378623 43.7411233 -47.42301406 43.71765844 -51.46278381 43.70740509 C-52.99029061 43.70011514 -54.51778345 43.68588607 -56.04515076 43.66399384 C-69.60930252 43.47762428 -82.80431128 45.13962589 -94.82324219 51.89941406 C-95.43748047 52.24343262 -96.05171875 52.58745117 -96.68457031 52.94189453 C-101.81107109 55.88193462 -106.40237196 59.25717686 -110.88574219 63.08691406 C-111.46195312 63.52003906 -112.03816406 63.95316406 -112.63183594 64.39941406 C-126.94010755 75.50236848 -135.6216825 93.91846322 -139.88574219 111.08691406 C-140.11003906 111.93898438 -140.33433594 112.79105469 -140.56542969 113.66894531 C-143.60643436 127.22849353 -142.64955925 141.81621426 -138.88574219 155.08691406 C-138.60730469 156.10011719 -138.32886719 157.11332031 -138.04199219 158.15722656 C-135.84386251 165.41484439 -132.37168775 175.6009685 -126.88574219 181.08691406 C-126.84815796 179.70185669 -126.84815796 179.70185669 -126.80981445 178.28881836 C-126.71465173 174.8614499 -126.61542005 171.43424946 -126.51342773 168.00708008 C-126.47012888 166.52405392 -126.4284502 165.04097953 -126.38842773 163.55786133 C-126.33060261 161.42547068 -126.26694387 159.29332164 -126.20214844 157.16113281 C-126.16549072 155.87811279 -126.12883301 154.59509277 -126.09106445 153.27319336 C-125.88574219 150.08691406 -125.88574219 150.08691406 -124.88574219 147.08691406 C-120.59420197 147.00015786 -116.30288551 146.94660517 -112.01074219 146.89941406 C-110.78742188 146.87427734 -109.56410156 146.84914063 -108.30371094 146.82324219 C-106.55380859 146.80874023 -106.55380859 146.80874023 -104.76855469 146.79394531 C-103.15037842 146.77037964 -103.15037842 146.77037964 -101.49951172 146.74633789 C-100.2056958 146.9149231 -100.2056958 146.9149231 -98.88574219 147.08691406 C-96.6145251 150.4937397 -96.64105332 151.6648859 -96.65869141 155.65991211 C-96.65884247 156.80086838 -96.65899353 157.94182465 -96.65914917 159.11735535 C-96.66947174 160.34867691 -96.67979431 161.57999847 -96.69042969 162.84863281 C-96.69325958 164.10956253 -96.69608948 165.37049225 -96.69900513 166.66963196 C-96.70831094 170.01851829 -96.72627516 173.36713197 -96.74841309 176.71594238 C-96.76888833 180.13449753 -96.77801042 183.55308087 -96.78808594 186.97167969 C-96.81016039 193.67683326 -96.84364856 200.38185792 -96.88574219 207.08691406 C-88.86720281 208.94501814 -81.05985967 210.58603235 -72.82324219 210.89941406 C-71.9725415 210.93510498 -71.12184082 210.9707959 -70.24536133 211.00756836 C-50.32820272 211.62049105 -31.83549039 204.2404818 -16.88574219 191.08691406 C-16.13679687 190.43207031 -15.38785156 189.77722656 -14.61621094 189.10253906 C-4.90431244 180.03589447 3.27833899 167.46516776 4.36816406 153.93457031 C4.09354913 150.85465819 3.7308157 150.04003466 1.55175781 147.96191406 C-0.88574219 145.08691406 -0.88574219 145.08691406 -0.94824219 143.02441406 C0.56604723 140.26306277 1.83191624 138.31450647 4.11425781 136.08691406 C7.18356884 135.61649587 9.68593167 135.45397952 12.74707031 135.52832031 C13.58011688 135.5306517 14.41316345 135.53298309 15.27145386 135.53538513 C17.02824172 135.54511133 18.78499872 135.56687279 20.54150391 135.59985352 C23.23679764 135.64936887 25.93026857 135.66134029 28.62597656 135.66699219 C30.33302732 135.68107432 32.04006218 135.69727734 33.74707031 135.71582031 C34.55540314 135.72118301 35.36373596 135.72654572 36.19656372 135.73207092 C41.88095454 135.85361079 41.88095454 135.85361079 44.11425781 138.08691406 C44.34660278 140.53407986 44.44652783 142.82637063 44.42675781 145.27441406 C44.41938599 146.34755859 44.41938599 146.34755859 44.41186523 147.44238281 C43.78995915 176.42639562 29.72702293 203.45506041 10.11425781 224.08691406 C-12.09827369 245.35353747 -41.4104039 254.88487547 -71.77246094 254.42675781 C-98.43630041 253.39876464 -124.2496116 241.91004964 -143.88574219 224.08691406 C-144.67078125 223.37559326 -144.67078125 223.37559326 -145.47167969 222.64990234 C-158.45349585 210.7308581 -166.58159463 197.00248559 -173.88574219 181.08691406 C-174.37042969 180.03117188 -174.85511719 178.97542969 -175.35449219 177.88769531 C-180.80677281 164.90528321 -183.39348963 150.12681321 -183.88574219 136.08691406 C-183.92570312 135.32378906 -183.96566406 134.56066406 -184.00683594 133.77441406 C-184.84603478 104.55054857 -175.08921378 72.97184121 -156.63183594 50.23925781 C-155.44614572 48.77770232 -154.29314609 47.28913663 -153.17089844 45.77832031 C-149.77894218 41.21725441 -146.27138338 37.39122751 -141.89746094 33.75878906 C-140.59894908 32.67963746 -139.32762525 31.56649129 -138.09277344 30.41503906 C-117.19797378 10.99044919 -89.06011585 0.93302826 -60.87792969 0.67285156 C-59.52388474 0.65384209 -58.16985022 0.63407745 -56.81582642 0.61361694 C-53.20870012 0.56172948 -49.60154293 0.52177029 -45.99423218 0.48521423 C-43.75385368 0.4618422 -41.51352768 0.43558849 -39.27319336 0.4083252 C-30.9702202 0.30734368 -22.66721541 0.2200064 -14.36395645 0.14621735 C-9.57588837 0.10347512 -4.78795715 0.05380068 0 0 Z " fill="#498CD1" transform="translate(292.8857421875,125.9130859375)"/>
<path d="M0 0 C4.29161047 -0.05783842 8.58312145 -0.0935412 12.875 -0.125 C14.09832031 -0.14175781 15.32164062 -0.15851563 16.58203125 -0.17578125 C17.74863281 -0.18222656 18.91523438 -0.18867188 20.1171875 -0.1953125 C21.19597168 -0.20578613 22.27475586 -0.21625977 23.38623047 -0.22705078 C26 0 26 0 28 2 C28.24052647 4.70581543 28.35641862 7.31265065 28.38574219 10.02294922 C28.40209717 10.8525264 28.41845215 11.68210358 28.43530273 12.53681946 C28.4850693 15.29274617 28.51807148 18.04846516 28.546875 20.8046875 C28.55752235 21.74770847 28.56816971 22.69072945 28.57913971 23.66232681 C28.63265068 28.66222126 28.67136925 33.66201546 28.70019531 38.66210938 C28.72678531 42.78704438 28.78230323 46.90997925 28.86425781 51.03417969 C28.96338962 56.0229115 29.01249548 61.00984102 29.02664948 65.99951553 C29.04000636 67.89331857 29.07027393 69.78708679 29.11843109 71.68032455 C29.52832363 88.78287582 29.52832363 88.78287582 23.14428711 96.06860352 C21.4808949 97.76436615 19.77162046 99.41764558 18 101 C17.39865738 101.56069687 16.79731476 102.12139374 16.17774963 102.69908142 C11.08404887 107.13782638 5.3987097 110.81862169 -1 113 C-2.10543971 107.64714024 -2.14792988 102.47308249 -2.14526367 97.03491211 C-2.14862228 96.04720322 -2.1519809 95.05949432 -2.15544128 94.04185486 C-2.16491665 90.78700493 -2.16689241 87.5322066 -2.16796875 84.27734375 C-2.17118273 82.01103189 -2.17454691 79.74472024 -2.17805481 77.47840881 C-2.18403683 72.73324095 -2.18589556 67.98809129 -2.18530273 63.24291992 C-2.18520094 57.16097517 -2.1988749 51.07914672 -2.21607494 44.99722958 C-2.22718672 40.31925418 -2.22922223 35.64130702 -2.22869301 30.96331978 C-2.22987353 28.72062337 -2.23429931 26.47792625 -2.24202538 24.23524284 C-2.25181236 21.10197626 -2.24895267 17.96896395 -2.24291992 14.83569336 C-2.24853943 13.90932068 -2.25415894 12.982948 -2.25994873 12.02850342 C-2.23813715 7.57493498 -2.11275628 4.04452017 0 0 Z " fill="#498DD2" transform="translate(252,207)"/>
<path d="M0 0 C1.1653125 -0.00128906 2.330625 -0.00257813 3.53125 -0.00390625 C4.7584375 -0.00003906 5.985625 0.00382813 7.25 0.0078125 C9.09078125 0.00201172 9.09078125 0.00201172 10.96875 -0.00390625 C12.71671875 -0.00197266 12.71671875 -0.00197266 14.5 0 C15.57765625 0.00112793 16.6553125 0.00225586 17.765625 0.00341797 C20.25 0.1328125 20.25 0.1328125 21.25 1.1328125 C21.38018922 3.46781213 21.44659369 5.77488116 21.47119141 8.11181641 C21.4826973 8.84198975 21.49420319 9.57216309 21.50605774 10.32446289 C21.54291126 12.75272339 21.57246811 15.18100998 21.6015625 17.609375 C21.62467509 19.29511893 21.64806539 20.98085908 21.67172241 22.66659546 C21.72026974 26.20917427 21.76517551 29.75177654 21.80761719 33.29443359 C21.86220379 37.82380542 21.92608392 42.35298888 21.99279213 46.88219643 C22.04303696 50.36867611 22.08809241 53.85520853 22.13163376 57.3417778 C22.15313043 59.01066646 22.17626666 60.67953487 22.2010994 62.34837723 C22.23521935 64.69136779 22.26228639 67.03434125 22.28759766 69.37744141 C22.30466011 70.40331863 22.30466011 70.40331863 22.32206726 71.44992065 C22.35936513 75.76787911 22.10715311 79.89586389 21.25 84.1328125 C17.13137709 86.19212395 11.77640955 85.31770512 7.25 85.3203125 C5.57164062 85.33868164 5.57164062 85.33868164 3.859375 85.35742188 C2.25835937 85.36032227 2.25835937 85.36032227 0.625 85.36328125 C-0.35726562 85.36739014 -1.33953125 85.37149902 -2.3515625 85.37573242 C-4.75 85.1328125 -4.75 85.1328125 -6.75 83.1328125 C-6.94315817 80.51806627 -7.01230952 78.00969337 -6.99291992 75.39428711 C-6.99481827 74.59580856 -6.99671661 73.79733002 -6.99867249 72.97465515 C-7.00238561 70.32805652 -6.99166936 67.6817306 -6.98046875 65.03515625 C-6.97927724 63.2019504 -6.97882373 61.36874394 -6.9790802 59.53553772 C-6.97751446 55.69121486 -6.96921725 51.84698501 -6.95581055 48.00268555 C-6.93880862 43.06367713 -6.93499649 38.12477091 -6.93575573 33.18573666 C-6.93548442 29.40006018 -6.93000976 25.61440625 -6.92275429 21.82873726 C-6.91956212 20.00698581 -6.91759894 18.1852318 -6.91686058 16.36347771 C-6.91470347 13.82292153 -6.90597333 11.28247596 -6.89526367 8.74194336 C-6.89571686 7.98192017 -6.89617004 7.22189697 -6.89663696 6.43884277 C-6.85666516 -0.0133235 -6.31919927 0.00661399 0 0 Z " fill="#498CD1" transform="translate(215.75,240.8671875)"/>
<path d="M0 0 C1.1653125 -0.00128906 2.330625 -0.00257813 3.53125 -0.00390625 C4.7584375 -0.00003906 5.985625 0.00382813 7.25 0.0078125 C9.09078125 0.00201172 9.09078125 0.00201172 10.96875 -0.00390625 C12.71671875 -0.00197266 12.71671875 -0.00197266 14.5 0 C15.57765625 0.00112793 16.6553125 0.00225586 17.765625 0.00341797 C20.25 0.1328125 20.25 0.1328125 21.25 1.1328125 C21.38018922 3.46781213 21.44659369 5.77488116 21.47119141 8.11181641 C21.4826973 8.84198975 21.49420319 9.57216309 21.50605774 10.32446289 C21.54291126 12.75272339 21.57246811 15.18100998 21.6015625 17.609375 C21.62467509 19.29511893 21.64806539 20.98085908 21.67172241 22.66659546 C21.72026974 26.20917427 21.76517551 29.75177654 21.80761719 33.29443359 C21.86220379 37.82380542 21.92608392 42.35298888 21.99279213 46.88219643 C22.04303696 50.36867611 22.08809241 53.85520853 22.13163376 57.3417778 C22.15313043 59.01066646 22.17626666 60.67953487 22.2010994 62.34837723 C22.23521935 64.69136779 22.26228639 67.03434125 22.28759766 69.37744141 C22.30466011 70.40331863 22.30466011 70.40331863 22.32206726 71.44992065 C22.35936513 75.76787911 22.10715311 79.89586389 21.25 84.1328125 C17.13137709 86.19212395 11.77640955 85.31770512 7.25 85.3203125 C5.57164062 85.33868164 5.57164062 85.33868164 3.859375 85.35742188 C2.25835937 85.36032227 2.25835937 85.36032227 0.625 85.36328125 C-0.35726562 85.36739014 -1.33953125 85.37149902 -2.3515625 85.37573242 C-4.75 85.1328125 -4.75 85.1328125 -6.75 83.1328125 C-6.94315817 80.51806627 -7.01230952 78.00969337 -6.99291992 75.39428711 C-6.99481827 74.59580856 -6.99671661 73.79733002 -6.99867249 72.97465515 C-7.00238561 70.32805652 -6.99166936 67.6817306 -6.98046875 65.03515625 C-6.97927724 63.2019504 -6.97882373 61.36874394 -6.9790802 59.53553772 C-6.97751446 55.69121486 -6.96921725 51.84698501 -6.95581055 48.00268555 C-6.93880862 43.06367713 -6.93499649 38.12477091 -6.93575573 33.18573666 C-6.93548442 29.40006018 -6.93000976 25.61440625 -6.92275429 21.82873726 C-6.91956212 20.00698581 -6.91759894 18.1852318 -6.91686058 16.36347771 C-6.91470347 13.82292153 -6.90597333 11.28247596 -6.89526367 8.74194336 C-6.89571686 7.98192017 -6.89617004 7.22189697 -6.89663696 6.43884277 C-6.85666516 -0.0133235 -6.31919927 0.00661399 0 0 Z M-4.75 2.1328125 C-4.77255116 12.54624561 -4.79091517 22.95966263 -4.80181217 33.37311459 C-4.80704097 38.20798077 -4.81413854 43.04282944 -4.82543945 47.87768555 C-4.83626847 52.5395837 -4.84227686 57.20146496 -4.84487724 61.86337471 C-4.84673147 63.64605538 -4.85035203 65.42873509 -4.85573006 67.21140862 C-4.86294069 69.6994721 -4.86399093 72.18746493 -4.86352539 74.67553711 C-4.8689183 75.79223282 -4.8689183 75.79223282 -4.87442017 76.93148804 C-5.16980997 80.31849133 -5.16980997 80.31849133 -3.75 83.1328125 C3.84 83.1328125 11.43 83.1328125 19.25 83.1328125 C19.25 56.4028125 19.25 29.6728125 19.25 2.1328125 C11.33 2.1328125 3.41 2.1328125 -4.75 2.1328125 Z " fill="#4077AC" transform="translate(215.75,240.8671875)"/>
<path d="M0 0 C0.66 0 1.32 0 2 0 C2 35.31 2 70.62 2 107 C4.64 105.68 7.28 104.36 10 103 C10.33 101.68 10.66 100.36 11 99 C14.465 98.505 14.465 98.505 18 98 C13.67374487 104.33487359 7.72951309 107.51138739 1 111 C0.67 111 0.34 111 0 111 C-1.11100211 105.63553261 -1.14128907 100.45318073 -1.12939453 95.00317383 C-1.13114685 94.01225235 -1.13289917 93.02133087 -1.13470459 92.00038147 C-1.1390941 88.73591341 -1.13619599 85.47149983 -1.1328125 82.20703125 C-1.13348621 79.93592824 -1.1344568 77.6648253 -1.13571167 75.39372253 C-1.13718457 70.64016023 -1.13504655 65.88661675 -1.13037109 61.13305664 C-1.12466431 55.03301153 -1.1279614 48.93301032 -1.13394356 42.8329668 C-1.13755183 38.14649625 -1.13640952 33.46003616 -1.13381577 28.77356529 C-1.13314774 26.52363772 -1.13397059 24.2737092 -1.13629532 22.02378273 C-1.13882724 18.88537693 -1.134974 15.74704301 -1.12939453 12.60864258 C-1.13141876 11.67507935 -1.13344299 10.74151611 -1.13552856 9.77966309 C-1.13270874 8.92596634 -1.12988892 8.07226959 -1.12698364 7.19270325 C-1.12660662 6.45107846 -1.12622959 5.70945368 -1.12584114 4.94535542 C-1 3 -1 3 0 0 Z " fill="#578FC5" transform="translate(251,209)"/>
<path d="M0 0 C4.29161047 -0.05783842 8.58312145 -0.0935412 12.875 -0.125 C14.09832031 -0.14175781 15.32164062 -0.15851563 16.58203125 -0.17578125 C17.74863281 -0.18222656 18.91523438 -0.18867188 20.1171875 -0.1953125 C21.19597168 -0.20578613 22.27475586 -0.21625977 23.38623047 -0.22705078 C26 0 26 0 28 2 C28.20908522 4.74405565 28.29364445 7.38801549 28.29052734 10.1340332 C28.30060318 11.39526505 28.30060318 11.39526505 28.31088257 12.68197632 C28.329936 15.47163751 28.33379071 18.26105897 28.3359375 21.05078125 C28.3423613 22.98650716 28.34908934 24.92223209 28.35610962 26.85795593 C28.36810145 30.92087047 28.37178859 34.98369987 28.37060547 39.04663086 C28.37040239 44.25224368 28.39768415 49.45730984 28.43214989 54.66279316 C28.45439388 58.66310633 28.45844375 62.66328755 28.45738602 66.66365623 C28.45974653 68.58260161 28.46859535 70.50155037 28.48405075 72.42043495 C28.50365633 75.10660578 28.49789386 77.79159314 28.48583984 80.4777832 C28.49707886 81.27017899 28.50831787 82.06257477 28.51989746 82.87898254 C28.47693865 86.64801225 28.11923978 88.81021424 26.09463501 92.03263855 C24 94 24 94 22 94 C23.875 90.125 23.875 90.125 25 89 C25.12514411 86.29246274 25.18607128 83.60917896 25.20532227 80.90014648 C25.21522186 80.05143982 25.22512146 79.20273315 25.23532104 78.32830811 C25.26703247 75.50926551 25.29173139 72.69020602 25.31640625 69.87109375 C25.33696746 67.92195689 25.3579637 65.97282456 25.37937927 64.0236969 C25.43468598 58.88298207 25.4840572 53.74222643 25.53222656 48.60144043 C25.58237897 43.35990753 25.63809763 38.1184342 25.69335938 32.87695312 C25.80104608 22.58468432 25.90195345 12.29236516 26 2 C17.09 2 8.18 2 -1 2 C-0.67 1.34 -0.34 0.68 0 0 Z " fill="#5087BD" transform="translate(252,207)"/>
<path d="M0 0 C0.71274078 -0.00014603 1.42548157 -0.00029205 2.15982056 -0.0004425 C4.50265607 0.00025108 6.84541089 0.00801739 9.18823242 0.01586914 C10.81776384 0.01773529 12.44729582 0.01915826 14.076828 0.02015686 C18.35608481 0.02396651 22.63530744 0.03378351 26.91455078 0.04486084 C31.28507017 0.05510837 35.6555951 0.05966163 40.02612305 0.06469727 C48.59449807 0.07540721 57.16284536 0.09246494 65.73120117 0.11352539 C65.73120117 0.44352539 65.73120117 0.77352539 65.73120117 1.11352539 C64.4945018 1.11566292 64.4945018 1.11566292 63.2328186 1.11784363 C55.3797307 1.13583501 47.52719433 1.17791776 39.67437172 1.24561596 C35.63920606 1.27959177 31.60440713 1.30494929 27.5690918 1.30908203 C1.69298923 1.34500791 -22.01799923 2.52275816 -42.75317383 20.08227539 C-44.26879883 21.11352539 -44.26879883 21.11352539 -47.26879883 21.11352539 C-47.26879883 20.45352539 -47.26879883 19.79352539 -47.26879883 19.11352539 C-45.63949281 18.05374255 -43.96364817 17.06497875 -42.26879883 16.11352539 C-40.49569354 14.97121092 -38.72493146 13.82525267 -36.95629883 12.67602539 C-25.535525 5.41796352 -13.73514821 -0.02372219 0 0 Z " fill="#447BB2" transform="translate(227.268798828125,166.886474609375)"/>
<path d="M0 0 C0.99 0.33 1.98 0.66 3 1 C3.02312545 10.10959165 3.04091612 19.21917326 3.05181217 28.3287878 C3.05704056 32.55831371 3.0641374 36.7878196 3.07543945 41.01733398 C3.08626991 45.09568543 3.09227717 49.17401757 3.09487724 53.25238228 C3.09673121 54.81177639 3.10035127 56.3711694 3.10573006 57.93055534 C3.11294262 60.10729162 3.11399085 62.28394714 3.11352539 64.46069336 C3.115746 65.70201523 3.11796661 66.9433371 3.12025452 68.22227478 C3 71 3 71 2 72 C-0.69654854 72.07319621 -3.36691458 72.09242537 -6.0625 72.0625 C-6.82111328 72.05798828 -7.57972656 72.05347656 -8.36132812 72.04882812 C-10.24091871 72.0370068 -12.12046899 72.01907078 -14 72 C-14 71.67 -14 71.34 -14 71 C-9.38 70.67 -4.76 70.34 0 70 C0 46.9 0 23.8 0 0 Z " fill="#5188BD" transform="translate(334,128)"/>
<path d="M0 0 C1.79341438 4.16673521 0.01173384 7.74663341 -1.4375 11.75 C-1.68048828 12.44738281 -1.92347656 13.14476562 -2.17382812 13.86328125 C-2.77310248 15.57885098 -3.38529885 17.28989715 -4 19 C-4.66 19 -5.32 19 -6 19 C-6.268125 19.886875 -6.53625 20.77375 -6.8125 21.6875 C-8.89279013 27.49041457 -11.55192641 30.69928306 -16.25390625 34.53125 C-18.17613036 36.08620133 -18.17613036 36.08620133 -20.3125 38.5 C-23.55210835 41.51358917 -27.04371969 43.51119788 -30.890625 45.66796875 C-33.1291614 46.82709033 -33.1291614 46.82709033 -34 49 C-36.42757866 50.15668706 -38.8188763 51.19611546 -41.3125 52.1875 C-41.98990234 52.47302734 -42.66730469 52.75855469 -43.36523438 53.05273438 C-47.04643467 54.53169168 -49.22598326 55.21677086 -53 54 C-52.41621582 53.73896484 -51.83243164 53.47792969 -51.23095703 53.20898438 C-35.56059753 46.28315918 -35.56059753 46.28315918 -22 36 C-21.23945313 35.32710938 -20.47890625 34.65421875 -19.6953125 33.9609375 C-9.51373898 24.53355461 -4.05856631 13.01472945 0 0 Z " fill="#4E84B9" transform="translate(298,281)"/>
<path d="M0 0 C0.99 0.495 0.99 0.495 2 1 C2.33 19.81 2.66 38.62 3 58 C3.99 58 4.98 58 6 58 C7.39300182 56.04109119 8.72245446 54.0360882 10 52 C11.75 50.125 11.75 50.125 13 49 C12.35637019 52.42222677 11.0302073 54.84953515 9.125 57.75 C8.35542969 58.94882813 8.35542969 58.94882813 7.5703125 60.171875 C7.05210937 60.77515625 6.53390625 61.3784375 6 62 C3 62 3 62 1.33378601 60.85978699 C-0.5334666 58.25615187 -0.3609668 56.43114375 -0.34057617 53.2434082 C-0.34034958 52.06241043 -0.34012299 50.88141266 -0.33988953 49.66462708 C-0.32440567 48.38955795 -0.30892181 47.11448883 -0.29296875 45.80078125 C-0.28872391 44.49545944 -0.28447906 43.19013763 -0.28010559 41.84526062 C-0.26866089 38.37794721 -0.23919754 34.91101187 -0.20599365 31.44384766 C-0.17528433 27.90467442 -0.16159845 24.36543999 -0.14648438 20.82617188 C-0.11432705 13.88395945 -0.06313554 6.94199789 0 0 Z " fill="#588AB9" transform="translate(294,168)"/>
<path d="M0 0 C0.66 0 1.32 0 2 0 C2.29390625 1.11181641 2.29390625 1.11181641 2.59375 2.24609375 C6.00892757 14.27281821 10.7243397 26.78783835 18.7734375 36.515625 C20 38 20 38 21.4375 40.5 C25.07180341 46.31488546 30.09405911 51.24272398 35 56 C30.79877458 56 29.83141388 54.29772255 26.875 51.375 C15.89602499 40.25034279 0.44888377 18.26077456 -0.09375 2.23046875 C-0.0628125 1.49441406 -0.031875 0.75835937 0 0 Z " fill="#5183B6" transform="translate(115,292)"/>
<path d="M0 0 C0.66 0.33 1.32 0.66 2 1 C0.08664291 5.35820227 -2.18013051 8.56765886 -5.40234375 11.99609375 C-9.5350351 17.1796406 -12.26206672 23.40208547 -15.0625 29.375 C-15.41393066 30.12378418 -15.76536133 30.87256836 -16.12744141 31.64404297 C-18.45416189 36.66761921 -20.51658702 41.65748257 -22 47 C-22.20238281 47.68964844 -22.40476562 48.37929687 -22.61328125 49.08984375 C-23.08861896 50.72280663 -23.54660666 52.36080868 -24 54 C-24.33 54 -24.66 54 -25 54 C-24.63624594 46.82369275 -23.21281936 40.86123285 -20.4375 34.25 C-20.08179932 33.38528076 -19.72609863 32.52056152 -19.35961914 31.62963867 C-14.59592659 20.32359872 -8.76841998 8.76841998 0 0 Z " fill="#4B81B8" transform="translate(139,173)"/>
<path d="M0 0 C-3.59207098 3.30848643 -7.63751727 4.04475674 -12.25 5.125 C-21.81297688 7.56098109 -29.69595762 11.76943603 -38 17 C-38.89203125 17.55816406 -39.7840625 18.11632812 -40.703125 18.69140625 C-41.77820313 19.37009766 -41.77820313 19.37009766 -42.875 20.0625 C-46 22 -46 22 -48 22 C-48.66 23.32 -49.32 24.64 -50 26 C-50.66 25.67 -51.32 25.34 -52 25 C-40.2029655 12.02326206 -17.77955712 -0.34191456 0 0 Z " fill="#4C81B6" transform="translate(210,130)"/>
<path d="M0 0 C0 4.03619818 -1.49834469 5.05008178 -4.125 8.0625 C-8.37091347 13.12032796 -11.84614853 18.20871718 -15 24 C-15.44085938 24.78890625 -15.88171875 25.5778125 -16.3359375 26.390625 C-20.61137169 34.42325893 -23.3474206 43.05954545 -25 52 C-25.66 52 -26.32 52 -27 52 C-26.68484018 44.59374434 -25.13096362 38.69573545 -22 32 C-21.20335937 30.28683594 -21.20335937 30.28683594 -20.390625 28.5390625 C-15.10384934 17.44218581 -8.31701444 9.0193401 0 0 Z " fill="#5286BA" transform="translate(177,190)"/>
<path d="M0 0 C1.98 0.99 3.96 1.98 6 3 C6 3.66 6 4.32 6 5 C6.66 5.226875 7.32 5.45375 8 5.6875 C10.42663745 6.74915389 12.36257772 7.82165797 14.5625 9.25 C22.21708818 14.12241206 30.09395679 18.1261275 38.94140625 20.26171875 C41.27175651 21.09746106 42.39832462 22.14246594 44 24 C37.74460243 23.50410212 32.86410471 22.00023862 27.1875 19.375 C26.40141357 19.01744629 25.61532715 18.65989258 24.80541992 18.29150391 C15.67306611 14.04769505 7.3054721 8.98078445 0 2 C0 1.34 0 0.68 0 0 Z " fill="#4F83B6" transform="translate(153,351)"/>
<path d="M0 0 C0.33 0 0.66 0 1 0 C1.06948078 10.88311581 1.12280153 21.76617893 1.15543652 32.64947128 C1.17109891 37.70291726 1.19234774 42.75621161 1.22631836 47.80957031 C1.25889122 52.68546288 1.27684869 57.56120949 1.28463173 62.43720245 C1.29017896 64.29836576 1.30101123 66.159521 1.31719017 68.02062225 C1.33893693 70.62557803 1.34196809 73.22992913 1.34057617 75.83496094 C1.351362 76.60604187 1.36214783 77.3771228 1.3732605 78.17156982 C1.35451183 81.40980167 1.19311841 83.65280176 -0.39628601 86.51031494 C-2 88 -2 88 -4 88 C-2.125 84.125 -2.125 84.125 -1 83 C-0.87494915 80.41450228 -0.813952 77.85438589 -0.79467773 75.26733398 C-0.78477814 74.4576416 -0.77487854 73.64794922 -0.76467896 72.8137207 C-0.73297013 70.12454195 -0.70826965 67.4353455 -0.68359375 64.74609375 C-0.66303231 62.88663766 -0.64203606 61.02718632 -0.62062073 59.16773987 C-0.56531634 54.26376185 -0.5159441 49.35974107 -0.46777344 44.45568848 C-0.41761934 39.45544612 -0.36190155 34.45526618 -0.30664062 29.45507812 C-0.19895679 19.63677201 -0.09753468 9.81841181 0 0 Z " fill="#2E77B9" transform="translate(278,213)"/>
<path d="M0 0 C1.07930786 0.04543945 1.07930786 0.04543945 2.18041992 0.09179688 C5.51600441 0.23063494 8.85174464 0.3653323 12.1875 0.5 C13.88422852 0.57154297 13.88422852 0.57154297 15.61523438 0.64453125 C23.41465028 0.95561906 31.19470332 1.05818215 39 1 C33.50817179 4.66121881 27.21192874 4.19258042 20.8125 4.1875 C19.97549561 4.18814453 19.13849121 4.18878906 18.27612305 4.18945312 C12.02377405 4.13627764 6.08037055 3.53034045 0 2 C0 1.34 0 0.68 0 0 Z " fill="#5188BE" transform="translate(204,336)"/>
<path d="M0 0 C0.33 0 0.66 0 1 0 C1.41658728 11.76859066 -2.91933678 22.33869951 -8.0625 32.75 C-8.55459961 33.75063477 -8.55459961 33.75063477 -9.05664062 34.77148438 C-10.94152716 38.43215224 -12.90822466 41.2731781 -16 44 C-14.40109514 38.80355921 -12.25861997 33.93387858 -10 29 C-9.34 29 -8.68 29 -8 29 C-7.72736328 27.96552734 -7.72736328 27.96552734 -7.44921875 26.91015625 C-6.22985145 22.3515985 -4.9844653 17.83436427 -3.4375 13.375 C-1.92969877 8.98650483 -0.91338023 4.54540987 0 0 Z " fill="#4A81B6" transform="translate(333,287)"/>
<path d="M0 0 C0 3 0 3 -1.51171875 4.54296875 C-25.93111639 23 -25.93111639 23 -36 23 C-35.505 21.515 -35.505 21.515 -35 20 C-32.41015625 18.82421875 -32.41015625 18.82421875 -29.0625 17.6875 C-18.00313112 13.62757918 -9.23744877 7.1423573 0 0 Z " fill="#5282B4" transform="translate(298,351)"/>
<path d="M0 0 C0.66 0 1.32 0 2 0 C2.29132813 0.72703125 2.58265625 1.4540625 2.8828125 2.203125 C5.92088717 9.65500627 9.3106259 16.84946051 13 24 C12.34 24.33 11.68 24.66 11 25 C0 7.91408935 0 7.91408935 0 0 Z " fill="#4C81B5" transform="translate(153,285)"/>
<path d="M0 0 C0.66 0.33 1.32 0.66 2 1 C2.05434116 3.5419589 2.0938339 6.08273682 2.125 8.625 C2.15013672 9.69427734 2.15013672 9.69427734 2.17578125 10.78515625 C2.21684602 15.2612164 1.69086567 18.77949278 0 23 C-0.33 23 -0.66 23 -1 23 C-1.1567564 15.28410183 -0.67453101 7.68483539 0 0 Z " fill="#558AC1" transform="translate(335,263)"/>
<path d="M0 0 C1.79341438 4.16673521 0.01173384 7.74663341 -1.4375 11.75 C-1.68048828 12.44738281 -1.92347656 13.14476562 -2.17382812 13.86328125 C-2.77310248 15.57885098 -3.38529885 17.28989715 -4 19 C-4.66 19 -5.32 19 -6 19 C-6.33 19.66 -6.66 20.32 -7 21 C-6.26951699 16.31196344 -4.63363115 12.09114445 -2.9375 7.6875 C-2.51500977 6.57665039 -2.51500977 6.57665039 -2.08398438 5.44335938 C-1.39281425 3.62757345 -0.69688311 1.81360101 0 0 Z " fill="#497EB2" transform="translate(298,281)"/>
<path d="M0 0 C0.33 0.99 0.66 1.98 1 3 C-0.328125 5.48046875 -0.328125 5.48046875 -2.25 8.1875 C-2.87390625 9.08855469 -3.4978125 9.98960937 -4.140625 10.91796875 C-4.75421875 11.60503906 -5.3678125 12.29210937 -6 13 C-6.99 13 -7.98 13 -9 13 C-9.66 11.68 -10.32 10.36 -11 9 C-9.68 9.33 -8.36 9.66 -7 10 C-3.535 5.05 -3.535 5.05 0 0 Z " fill="#5280B0" transform="translate(306,217)"/>
<path d="M0 0 C0.66 0.33 1.32 0.66 2 1 C1.278125 1.70125 0.55625 2.4025 -0.1875 3.125 C-2.10968351 5.03093971 -3.82596463 6.9992408 -5.5 9.125 C-7.86588655 11.84576953 -9.82261096 13.36591421 -13 15 C-11.62694425 10.506363 -9.72179536 8.76970817 -6 6 C-4.3142876 4.35259924 -2.6436814 2.68933922 -1 1 C-0.67 0.67 -0.34 0.34 0 0 Z " fill="#4C80B4" transform="translate(154,157)"/>
<path d="M0 0 C0.99 0.33 1.98 0.66 3 1 C2.7525 1.886875 2.505 2.77375 2.25 3.6875 C1.62744378 7.11259467 1.62744378 7.11259467 4 9.6875 C4.99 10.8321875 4.99 10.8321875 6 12 C5.67 12.99 5.34 13.98 5 15 C3.79723305 13.59627198 2.61319481 12.17647903 1.4375 10.75 C0.44556641 9.56664062 0.44556641 9.56664062 -0.56640625 8.359375 C-2 6 -2 6 -1.77734375 3.828125 C-1.22682629 2.53344072 -0.62917039 1.25834077 0 0 Z " fill="#5283B5" transform="translate(294,265)"/>
<path d="M0 0 C0.33 0.99 0.66 1.98 1 3 C-0.36228642 5.20743591 -1.72250684 7.15756888 -3.3125 9.1875 C-3.72951172 9.74630859 -4.14652344 10.30511719 -4.57617188 10.88085938 C-5.66150381 12.29854175 -6.82590946 13.65490516 -8 15 C-8.66 15 -9.32 15 -10 15 C-8.37815499 11.41486894 -6.20743761 8.41007677 -3.875 5.25 C-3.15054687 4.26515625 -2.42609375 3.2803125 -1.6796875 2.265625 C-1.12539063 1.51796875 -0.57109375 0.7703125 0 0 Z " fill="#4D82B6" transform="translate(318,200)"/>
<path d="M0 0 C-3.46642155 3.17755309 -7.38898294 4.45964644 -12 5 C-14.25 4.546875 -14.25 4.546875 -16 4 C-10.34497123 0.38706495 -6.71623212 -0.12915831 0 0 Z " fill="#437DB6" transform="translate(210,130)"/>
<path d="M0 0 C0.33 0 0.66 0 1 0 C1.08103404 2.91722548 1.14051081 5.83219516 1.1875 8.75 C1.21263672 9.575 1.23777344 10.4 1.26367188 11.25 C1.33772964 17.37210828 1.33772964 17.37210828 -0.38671875 20.578125 C-2 22 -2 22 -4 22 C-2.125 18.125 -2.125 18.125 -1 17 C-0.76298761 14.14122091 -0.57780818 11.30116703 -0.4375 8.4375 C-0.39431641 7.63119141 -0.35113281 6.82488281 -0.30664062 5.99414062 C-0.20024738 3.99631195 -0.09959112 1.9981793 0 0 Z " fill="#3D7AB5" transform="translate(278,279)"/>
<path d="M0 0 C0.33 0.99 0.66 1.98 1 3 C-0.14453125 4.82421875 -0.14453125 4.82421875 -1.8125 6.6875 C-2.35519531 7.31011719 -2.89789063 7.93273437 -3.45703125 8.57421875 C-5 10 -5 10 -7 10 C-5.33248852 6.05860922 -2.77289351 3.2107188 0 0 Z " fill="#4C7EB1" transform="translate(315,332)"/>
<path d="M0 0 C3 4 3 4 2.6875 7.75 C2.460625 8.8225 2.23375 9.895 2 11 C1.34 11 0.68 11 0 11 C0 7.37 0 3.74 0 0 Z " fill="#487DB2" transform="translate(235,314)"/>
<path d="M0 0 C0 0.33 0 0.66 0 1 C-3.63 1.66 -7.26 2.32 -11 3 C-11.33 2.34 -11.66 1.68 -12 1 C-7.67265609 -1.22923777 -4.71599818 -0.92470553 0 0 Z " fill="#578ABD" transform="translate(222,169)"/>
<path d="M0 0 C0.66 0.33 1.32 0.66 2 1 C0.68 1.33 -0.64 1.66 -2 2 C-2 2.66 -2 3.32 -2 4 C-4.70879335 5.35439668 -7.00933268 5.06501451 -10 5 C-6.76527494 2.84351662 -3.62848922 1.38542316 0 0 Z " fill="#5589BD" transform="translate(196,132)"/>
<path d="M0 0 C1.98 0.99 3.96 1.98 6 3 C6 3.66 6 4.32 6 5 C6.99 5.33 7.98 5.66 9 6 C8.01 6.33 7.02 6.66 6 7 C2.8125 4.6875 2.8125 4.6875 0 2 C0 1.34 0 0.68 0 0 Z " fill="#497DB1" transform="translate(153,351)"/>
<path d="M0 0 C7.66742597 5.0022779 7.66742597 5.0022779 9 9 C5.18063472 7.44396229 2.73955562 5.04395069 0 2 C0 1.34 0 0.68 0 0 Z " fill="#4576A7" transform="translate(141,340)"/>
<path d="M0 0 C0.95465783 2.16967689 1.14401212 3.56328793 0.3984375 5.82421875 C-0.35870385 7.5684743 -1.17609198 9.28627131 -2 11 C-2.33 11 -2.66 11 -3 11 C-3.39253254 6.55129785 -2.15305957 3.85756507 0 0 Z " fill="#4A80B5" transform="translate(156,220)"/>
<path d="M0 0 C2.475 0.99 2.475 0.99 5 2 C3.36587557 3.70840281 2.13093906 4.93453047 0 6 C-0.66 4.68 -1.32 3.36 -2 2 C-1.34 1.34 -0.68 0.68 0 0 Z " fill="#528CC6" transform="translate(157,154)"/>
<path d="M0 0 C0.66 0.66 1.32 1.32 2 2 C1.01 3.98 0.02 5.96 -1 8 C-1.66 7.67 -2.32 7.34 -3 7 C-1.125 1.125 -1.125 1.125 0 0 Z " fill="#5287BC" transform="translate(126,192)"/>
</svg>
